<svg xmlns="http://www.w3.org/2000/svg" xmlns:xlink="http://www.w3.org/1999/xlink" width="736" height="980pt" viewBox="0 0 552.03 980"><g id="graph0" class="graph" transform="scale(1 1) rotate(0) translate(4 976)"><title>MRPT_LIBS</title><polygon fill="#fff" stroke="transparent" points="-4 4 -4 -976 548.031 -976 548.031 4 -4 4"/><g id="node1" class="node"><title>apps</title><g id="a_node1"><a xlink:href="group__mrpt__bayes__grp.html" xlink:title="mrpt-apps"><polygon fill="#d0d0d0" stroke="#000" points="438 -972 366 -972 366 -936 438 -936 438 -972"/><text x="402" y="-950.3" fill="#000" font-family="Times,serif" font-size="14" text-anchor="middle">mrpt-apps</text></a></g></g><g id="node2" class="node"><title>gui</title><g id="a_node2"><a xlink:href="group__mrpt__gui__grp.html" xlink:title="mrpt-gui"><polygon fill="#d0d0d0" stroke="#000" points="407.5 -756 342.5 -756 342.5 -720 407.5 -720 407.5 -756"/><text x="375" y="-734.3" fill="#000" font-family="Times,serif" font-size="14" text-anchor="middle">mrpt-gui</text></a></g></g><g id="edge1" class="edge"><title>apps-&gt;gui</title><path fill="none" stroke="#000" d="M379.7211,-935.9596C354.4846,-913.7596 315.27,-873.3856 303,-828 298.8243,-812.5545 295.8446,-806.3108 303,-792 309.7562,-778.4875 321.6796,-767.4791 333.9031,-759.0107"/><polygon fill="#000" stroke="#000" points="335.851 -761.919 342.354 -753.554 332.054 -756.038 335.851 -761.919"/></g><g id="node3" class="node"><title>slam</title><g id="a_node3"><a xlink:href="group__mrpt__slam__grp.html" xlink:title="mrpt-slam"><polygon fill="#d0d0d0" stroke="#000" points="500 -756 426 -756 426 -720 500 -720 500 -756"/><text x="463" y="-734.3" fill="#000" font-family="Times,serif" font-size="14" text-anchor="middle">mrpt-slam</text></a></g></g><g id="edge2" class="edge"><title>apps-&gt;slam</title><path fill="none" stroke="#000" d="M435.6889,-935.9948C470.1197,-915.2961 521.0139,-877.6785 539,-828 544.4468,-812.9557 546.339,-806.2175 539,-792 532.3088,-779.0375 520.9095,-768.5092 508.9463,-760.3077"/><polygon fill="#000" stroke="#000" points="510.512 -757.156 500.195 -754.745 506.757 -763.063 510.512 -757.156"/></g><g id="node4" class="node"><title>hwdrivers</title><g id="a_node4"><a xlink:href="group__mrpt__hwdrivers__grp.html" xlink:title="mrpt-hwdrivers"><polygon fill="#d0d0d0" stroke="#000" points="255.5 -828 154.5 -828 154.5 -792 255.5 -792 255.5 -828"/><text x="205" y="-806.3" fill="#000" font-family="Times,serif" font-size="14" text-anchor="middle">mrpt-hwdrivers</text></a></g></g><g id="edge3" class="edge"><title>apps-&gt;hwdrivers</title><path fill="none" stroke="#000" d="M365.8538,-945.1265C337.6124,-936.8766 298.5036,-922.4347 270,-900 248.2959,-882.9171 230.5228,-856.7574 219.0807,-837.0361"/><polygon fill="#000" stroke="#000" points="222.076 -835.221 214.13 -828.212 215.971 -838.646 222.076 -835.221"/></g><g id="node5" class="node"><title>graphslam</title><g id="a_node5"><a xlink:href="group__mrpt__graphslam__grp.html" xlink:title="mrpt-graphslam"><polygon fill="#d0d0d0" stroke="#000" points="530 -828 426 -828 426 -792 530 -792 530 -828"/><text x="478" y="-806.3" fill="#000" font-family="Times,serif" font-size="14" text-anchor="middle">mrpt-graphslam</text></a></g></g><g id="edge4" class="edge"><title>apps-&gt;graphslam</title><path fill="none" stroke="#000" d="M427.2757,-935.8373C438.6354,-926.3929 451.2108,-913.9174 459,-900 469.627,-881.012 474.3241,-856.7402 476.3931,-838.1886"/><polygon fill="#000" stroke="#000" points="479.899 -838.289 477.333 -828.01 472.928 -837.646 479.899 -838.289"/></g><g id="node6" class="node"><title>hmtslam</title><g id="a_node6"><a xlink:href="group__mrpt__hmtslam__grp.html" xlink:title="mrpt-hmtslam"><polygon fill="#d0d0d0" stroke="#000" points="449.5 -900 354.5 -900 354.5 -864 449.5 -864 449.5 -900"/><text x="402" y="-878.3" fill="#000" font-family="Times,serif" font-size="14" text-anchor="middle">mrpt-hmtslam</text></a></g></g><g id="edge5" class="edge"><title>apps-&gt;hmtslam</title><path fill="none" stroke="#000" d="M402,-935.8314C402,-928.131 402,-918.9743 402,-910.4166"/><polygon fill="#000" stroke="#000" points="405.5 -910.413 402 -900.413 398.5 -910.413 405.5 -910.413"/></g><g id="node18" class="node"><title>opengl</title><g id="a_node18"><a xlink:href="group__mrpt__opengl__grp.html" xlink:title="mrpt-opengl"><polygon fill="#d0d0d0" stroke="#000" points="274 -540 190 -540 190 -504 274 -504 274 -540"/><text x="232" y="-518.3" fill="#000" font-family="Times,serif" font-size="14" text-anchor="middle">mrpt-opengl</text></a></g></g><g id="edge18" class="edge"><title>gui-&gt;opengl</title><path fill="none" stroke="#000" d="M347.92,-719.7945C335.5596,-710.3403 321.5772,-697.869 312,-684 283.001,-642.0059 297.3759,-620.8359 273,-576 267.7712,-566.3824 260.9306,-556.626 254.3392,-548.101"/><polygon fill="#000" stroke="#000" points="256.875 -545.667 247.9 -540.037 251.405 -550.035 256.875 -545.667"/></g><g id="node19" class="node"><title>maps</title><g id="a_node19"><a xlink:href="group__mrpt__maps__grp.html" xlink:title="mrpt-maps"><polygon fill="#d0d0d0" stroke="#000" points="262.5 -684 185.5 -684 185.5 -648 262.5 -648 262.5 -684"/><text x="224" y="-662.3" fill="#000" font-family="Times,serif" font-size="14" text-anchor="middle">mrpt-maps</text></a></g></g><g id="edge46" class="edge"><title>slam-&gt;maps</title><path fill="none" stroke="#000" d="M425.9128,-723.4363C422.5747,-722.2348 419.2347,-721.0718 416,-720 367.7233,-704.0039 311.6422,-688.5877 272.6031,-678.3514"/><polygon fill="#000" stroke="#000" points="273.123 -674.87 262.563 -675.735 271.357 -681.644 273.123 -674.87"/></g><g id="node20" class="node"><title>vision</title><g id="a_node20"><a xlink:href="group__mrpt__vision__grp.html" xlink:title="mrpt-vision"><polygon fill="#d0d0d0" stroke="#000" points="401 -684 321 -684 321 -648 401 -648 401 -684"/><text x="361" y="-662.3" fill="#000" font-family="Times,serif" font-size="14" text-anchor="middle">mrpt-vision</text></a></g></g><g id="edge47" class="edge"><title>slam-&gt;vision</title><path fill="none" stroke="#000" d="M437.2611,-719.8314C424.4563,-710.7927 408.8091,-699.7476 395.0281,-690.0198"/><polygon fill="#000" stroke="#000" points="396.919 -687.07 386.731 -684.163 392.882 -692.789 396.919 -687.07"/></g><g id="edge21" class="edge"><title>hwdrivers-&gt;gui</title><path fill="none" stroke="#000" d="M247.8982,-791.8314C273.8894,-780.8233 306.9071,-766.8393 332.7756,-755.8833"/><polygon fill="#000" stroke="#000" points="334.467 -758.968 342.31 -751.845 331.737 -752.522 334.467 -758.968"/></g><g id="node10" class="node"><title>comms</title><g id="a_node10"><a xlink:href="group__mrpt__comms__grp.html" xlink:title="mrpt-comms"><polygon fill="#d0d0d0" stroke="#000" points="88 -468 0 -468 0 -432 88 -432 88 -468"/><text x="44" y="-446.3" fill="#000" font-family="Times,serif" font-size="14" text-anchor="middle">mrpt-comms</text></a></g></g><g id="edge20" class="edge"><title>hwdrivers-&gt;comms</title><path fill="none" stroke="#000" d="M154.3866,-798.4684C113.8731,-788.2285 61.5097,-772.3853 47,-756 19.8972,-725.3937 28,-706.8816 28,-666 28,-666 28,-666 28,-594 28,-553.6291 34.2888,-507.2789 38.9811,-478.3146"/><polygon fill="#000" stroke="#000" points="42.489 -478.554 40.685 -468.114 35.585 -477.4 42.489 -478.554"/></g><g id="edge22" class="edge"><title>hwdrivers-&gt;maps</title><path fill="none" stroke="#000" d="M189.9764,-791.9597C176.6976,-773.7095 160.8885,-744.7377 171,-720 175.4592,-709.0907 183.3025,-699.1954 191.6103,-690.9434"/><polygon fill="#000" stroke="#000" points="194.005 -693.496 198.957 -684.13 189.245 -688.364 194.005 -693.496"/></g><g id="edge23" class="edge"><title>hwdrivers-&gt;vision</title><path fill="none" stroke="#000" d="M241.825,-791.8713C258.7639,-782.517 278.4915,-770.107 294,-756 314.4009,-737.4427 332.7289,-711.8845 345.0372,-692.7447"/><polygon fill="#000" stroke="#000" points="348.058 -694.516 350.416 -684.188 342.131 -690.791 348.058 -694.516"/></g><g id="edge16" class="edge"><title>graphslam-&gt;gui</title><path fill="none" stroke="#000" d="M452.0088,-791.8314C439.0784,-782.7927 423.2778,-771.7476 409.3617,-762.0198"/><polygon fill="#000" stroke="#000" points="411.184 -759.024 400.983 -756.163 407.174 -764.761 411.184 -759.024"/></g><g id="edge17" class="edge"><title>graphslam-&gt;slam</title><path fill="none" stroke="#000" d="M474.2149,-791.8314C472.6106,-784.131 470.703,-774.9743 468.9201,-766.4166"/><polygon fill="#000" stroke="#000" points="472.302 -765.489 466.836 -756.413 465.449 -766.917 472.302 -765.489"/></g><g id="edge19" class="edge"><title>hmtslam-&gt;graphslam</title><path fill="none" stroke="#000" d="M421.178,-863.8314C430.3588,-855.1337 441.5006,-844.5783 451.4776,-835.1265"/><polygon fill="#000" stroke="#000" points="453.976 -837.581 458.828 -828.163 449.161 -832.5 453.976 -837.581"/></g><g id="node7" class="node"><title>bayes</title><g id="a_node7"><a xlink:href="group__mrpt__bayes__grp.html" xlink:title="mrpt-bayes"><polygon fill="#d0d0d0" stroke="#000" points="342 -396 264 -396 264 -360 342 -360 342 -396"/><text x="303" y="-374.3" fill="#000" font-family="Times,serif" font-size="14" text-anchor="middle">mrpt-bayes</text></a></g></g><g id="node8" class="node"><title>math</title><g id="a_node8"><a xlink:href="group__mrpt__math__grp.html" xlink:title="mrpt-math"><polygon fill="#d0d0d0" stroke="#000" points="336.5 -252 261.5 -252 261.5 -216 336.5 -216 336.5 -252"/><text x="299" y="-230.3" fill="#000" font-family="Times,serif" font-size="14" text-anchor="middle">mrpt-math</text></a></g></g><g id="edge6" class="edge"><title>bayes-&gt;math</title><path fill="none" stroke="#000" d="M302.4934,-359.7623C301.8111,-335.201 300.5902,-291.2474 299.7876,-262.3541"/><polygon fill="#000" stroke="#000" points="303.279 -261.988 299.502 -252.09 296.282 -262.183 303.279 -261.988"/></g><g id="node9" class="node"><title>config</title><g id="a_node9"><a xlink:href="group__mrpt__config__grp.html" xlink:title="mrpt-config"><polygon fill="#d0d0d0" stroke="#000" points="241 -324 159 -324 159 -288 241 -288 241 -324"/><text x="200" y="-302.3" fill="#000" font-family="Times,serif" font-size="14" text-anchor="middle">mrpt-config</text></a></g></g><g id="edge7" class="edge"><title>bayes-&gt;config</title><path fill="none" stroke="#000" d="M277.0088,-359.8314C264.0784,-350.7927 248.2778,-339.7476 234.3617,-330.0198"/><polygon fill="#000" stroke="#000" points="236.184 -327.024 225.983 -324.163 232.174 -332.761 236.184 -327.024"/></g><g id="node13" class="node"><title>system</title><g id="a_node13"><a xlink:href="group__mrpt__system__grp.html" xlink:title="mrpt-system"><polygon fill="#d0d0d0" stroke="#000" points="186 -180 100 -180 100 -144 186 -144 186 -180"/><text x="143" y="-158.3" fill="#000" font-family="Times,serif" font-size="14" text-anchor="middle">mrpt-system</text></a></g></g><g id="edge33" class="edge"><title>math-&gt;system</title><path fill="none" stroke="#000" d="M261.2368,-216.5708C240.249,-206.8841 213.909,-194.7272 191.4201,-184.3477"/><polygon fill="#000" stroke="#000" points="192.591 -181.033 182.045 -180.021 189.657 -187.389 192.591 -181.033"/></g><g id="node24" class="node"><title>serialization</title><g id="a_node24"><a xlink:href="group__mrpt__serialization__grp.html" xlink:title="mrpt-serialization"><polygon fill="#d0d0d0" stroke="#000" points="317.5 -180 204.5 -180 204.5 -144 317.5 -144 317.5 -180"/><text x="261" y="-158.3" fill="#000" font-family="Times,serif" font-size="14" text-anchor="middle">mrpt-serialization</text></a></g></g><g id="edge31" class="edge"><title>math-&gt;serialization</title><path fill="none" stroke="#000" d="M289.411,-215.8314C285.1683,-207.7925 280.0879,-198.1666 275.404,-189.2918"/><polygon fill="#000" stroke="#000" points="278.481 -187.624 270.718 -180.413 272.29 -190.891 278.481 -187.624"/></g><g id="node25" class="node"><title>random</title><g id="a_node25"><a xlink:href="group__mrpt__random__grp.html" xlink:title="mrpt-random"><polygon fill="#d0d0d0" stroke="#000" points="390.5 -36 301.5 -36 301.5 0 390.5 0 390.5 -36"/><text x="346" y="-14.3" fill="#000" font-family="Times,serif" font-size="14" text-anchor="middle">mrpt-random</text></a></g></g><g id="edge32" class="edge"><title>math-&gt;random</title><path fill="none" stroke="#000" d="M310.1361,-215.6589C315.791,-205.5006 322.2431,-192.4423 326,-180 339.6887,-134.6652 344.0284,-79.4871 345.3918,-46.6341"/><polygon fill="#000" stroke="#000" points="348.898 -46.511 345.749 -36.395 341.902 -46.267 348.898 -46.511"/></g><g id="node26" class="node"><title>nanoflann</title><g id="a_node26"><a xlink:href="group__nanoflann__grp.html" xlink:title="mrpt-nanoflann"><polygon fill="#d0d0d0" stroke="#000" points="509.5 -36 408.5 -36 408.5 0 509.5 0 509.5 -36"/><text x="459" y="-14.3" fill="#000" font-family="Times,serif" font-size="14" text-anchor="middle">mrpt-nanoflann</text></a></g></g><g id="edge34" class="edge"><title>math-&gt;nanoflann</title><path fill="none" stroke="#000" d="M315.1846,-215.8553C324.2016,-205.5375 335.4935,-192.2644 345,-180 380.8205,-133.7875 419.3434,-77.5049 441.1802,-44.9102"/><polygon fill="#000" stroke="#000" points="444.238 -46.633 446.881 -36.373 438.417 -42.746 444.238 -46.633"/></g><g id="node12" class="node"><title>expr</title><g id="a_node12"><a xlink:href="group__mrpt__expr__grp.html" xlink:title="mrpt-expr"><polygon fill="#d0d0d0" stroke="#000" points="242.5 -252 171.5 -252 171.5 -216 242.5 -216 242.5 -252"/><text x="207" y="-230.3" fill="#000" font-family="Times,serif" font-size="14" text-anchor="middle">mrpt-expr</text></a></g></g><g id="edge9" class="edge"><title>config-&gt;expr</title><path fill="none" stroke="#000" d="M201.7664,-287.8314C202.515,-280.131 203.4053,-270.9743 204.2373,-262.4166"/><polygon fill="#000" stroke="#000" points="207.726 -262.705 205.21 -252.413 200.758 -262.028 207.726 -262.705"/></g><g id="edge10" class="edge"><title>config-&gt;system</title><path fill="none" stroke="#000" d="M184.254,-287.6429C176.4748,-277.6881 167.5829,-264.8229 162,-252 153.4204,-232.2941 148.6105,-208.4331 145.9779,-190.2324"/><polygon fill="#000" stroke="#000" points="149.439 -189.704 144.667 -180.244 142.498 -190.615 149.439 -189.704"/></g><g id="node11" class="node"><title>io</title><g id="a_node11"><a xlink:href="group__mrpt__io__grp.html" xlink:title="mrpt-io"><polygon fill="#d0d0d0" stroke="#000" points="134 -324 76 -324 76 -288 134 -288 134 -324"/><text x="105" y="-302.3" fill="#000" font-family="Times,serif" font-size="14" text-anchor="middle">mrpt-io</text></a></g></g><g id="edge8" class="edge"><title>comms-&gt;io</title><path fill="none" stroke="#000" d="M51.7257,-431.7623C62.2218,-406.9846 81.0781,-362.4714 93.3109,-333.5939"/><polygon fill="#000" stroke="#000" points="96.659 -334.663 97.337 -324.09 90.214 -331.932 96.659 -334.663"/></g><g id="edge27" class="edge"><title>io-&gt;system</title><path fill="none" stroke="#000" d="M109.8127,-287.7623C116.3227,-263.0928 127.9953,-218.8598 135.6182,-189.9731"/><polygon fill="#000" stroke="#000" points="139.059 -190.652 138.226 -180.09 132.291 -188.866 139.059 -190.652"/></g><g id="edge14" class="edge"><title>expr-&gt;system</title><path fill="none" stroke="#000" d="M190.8501,-215.8314C183.3283,-207.3694 174.2435,-197.1489 166.0196,-187.8971"/><polygon fill="#000" stroke="#000" points="168.627 -185.562 159.367 -180.413 163.395 -190.213 168.627 -185.562"/></g><g id="node14" class="node"><title>containers</title><g id="a_node14"><a xlink:href="group__mrpt__containers__grp.html" xlink:title="mrpt-containers"><polygon fill="#d0d0d0" stroke="#000" points="160.5 -108 57.5 -108 57.5 -72 160.5 -72 160.5 -108"/><text x="109" y="-86.3" fill="#000" font-family="Times,serif" font-size="14" text-anchor="middle">mrpt-containers</text></a></g></g><g id="edge49" class="edge"><title>system-&gt;containers</title><path fill="none" stroke="#000" d="M134.4204,-143.8314C130.6642,-135.8771 126.1743,-126.369 122.0202,-117.5723"/><polygon fill="#000" stroke="#000" points="125.13 -115.961 117.695 -108.413 118.8 -118.95 125.13 -115.961"/></g><g id="node31" class="node"><title>typemeta</title><g id="a_node31"><a xlink:href="group__mrpt__typemeta__grp.html" xlink:title="mrpt-typemeta (.h)"><polygon fill="#d0d0d0" stroke="#000" points="283.5 -36 162.5 -36 162.5 0 283.5 0 283.5 -36"/><text x="223" y="-14.3" fill="#000" font-family="Times,serif" font-size="14" text-anchor="middle">mrpt-typemeta (.h)</text></a></g></g><g id="edge48" class="edge"><title>system-&gt;typemeta</title><path fill="none" stroke="#000" d="M153.1321,-143.7623C167.0176,-118.7682 192.0598,-73.6924 208.0884,-44.8409"/><polygon fill="#000" stroke="#000" points="211.153 -46.531 212.95 -36.09 205.034 -43.131 211.153 -46.531"/></g><g id="node15" class="node"><title>core</title><g id="a_node15"><a xlink:href="group__mrpt__core__grp.html" xlink:title="mrpt-core"><polygon fill="#d0d0d0" stroke="#000" points="144.5 -36 73.5 -36 73.5 0 144.5 0 144.5 -36"/><text x="109" y="-14.3" fill="#000" font-family="Times,serif" font-size="14" text-anchor="middle">mrpt-core</text></a></g></g><g id="edge11" class="edge"><title>containers-&gt;core</title><path fill="none" stroke="#000" d="M109,-71.8314C109,-64.131 109,-54.9743 109,-46.4166"/><polygon fill="#000" stroke="#000" points="112.5 -46.413 109 -36.413 105.5 -46.413 112.5 -46.413"/></g><g id="node16" class="node"><title>detectors</title><g id="a_node16"><a xlink:href="group__mrpt__detectors__grp.html" xlink:title="mrpt-detectors"><polygon fill="#d0d0d0" stroke="#000" points="408 -828 312 -828 312 -792 408 -792 408 -828"/><text x="360" y="-806.3" fill="#000" font-family="Times,serif" font-size="14" text-anchor="middle">mrpt-detectors</text></a></g></g><g id="edge12" class="edge"><title>detectors-&gt;gui</title><path fill="none" stroke="#000" d="M363.7851,-791.8314C365.3894,-784.131 367.297,-774.9743 369.0799,-766.4166"/><polygon fill="#000" stroke="#000" points="372.551 -766.917 371.164 -756.413 365.698 -765.489 372.551 -766.917"/></g><g id="edge13" class="edge"><title>detectors-&gt;slam</title><path fill="none" stroke="#000" d="M385.9912,-791.8314C398.9216,-782.7927 414.7222,-771.7476 428.6383,-762.0198"/><polygon fill="#000" stroke="#000" points="430.826 -764.761 437.017 -756.163 426.816 -759.024 430.826 -764.761"/></g><g id="node17" class="node"><title>graphs</title><g id="a_node17"><a xlink:href="group__mrpt__graphs__grp.html" xlink:title="mrpt-graphs"><polygon fill="#d0d0d0" stroke="#000" points="264.5 -612 181.5 -612 181.5 -576 264.5 -576 264.5 -612"/><text x="223" y="-590.3" fill="#000" font-family="Times,serif" font-size="14" text-anchor="middle">mrpt-graphs</text></a></g></g><g id="edge15" class="edge"><title>graphs-&gt;opengl</title><path fill="none" stroke="#000" d="M225.2711,-575.8314C226.2336,-568.131 227.3782,-558.9743 228.4479,-550.4166"/><polygon fill="#000" stroke="#000" points="231.931 -550.77 229.698 -540.413 224.985 -549.902 231.931 -550.77"/></g><g id="node21" class="node"><title>img</title><g id="a_node21"><a xlink:href="group__mrpt__img__grp.html" xlink:title="mrpt-img"><polygon fill="#d0d0d0" stroke="#000" points="238.5 -396 169.5 -396 169.5 -360 238.5 -360 238.5 -396"/><text x="204" y="-374.3" fill="#000" font-family="Times,serif" font-size="14" text-anchor="middle">mrpt-img</text></a></g></g><g id="edge40" class="edge"><title>opengl-&gt;img</title><path fill="none" stroke="#000" d="M228.4538,-503.7623C223.6569,-479.0928 215.0561,-434.8598 209.4392,-405.9731"/><polygon fill="#000" stroke="#000" points="212.862 -405.238 207.517 -396.09 205.99 -406.574 212.862 -405.238"/></g><g id="node29" class="node"><title>poses</title><g id="a_node29"><a xlink:href="group__mrpt__poses__grp.html" xlink:title="mrpt-poses"><polygon fill="#d0d0d0" stroke="#000" points="341.5 -468 264.5 -468 264.5 -432 341.5 -432 341.5 -468"/><text x="303" y="-446.3" fill="#000" font-family="Times,serif" font-size="14" text-anchor="middle">mrpt-poses</text></a></g></g><g id="edge39" class="edge"><title>opengl-&gt;poses</title><path fill="none" stroke="#000" d="M249.9163,-503.8314C258.3442,-495.2848 268.541,-484.9443 277.736,-475.6198"/><polygon fill="#000" stroke="#000" points="280.313 -477.991 284.842 -468.413 275.329 -473.076 280.313 -477.991"/></g><g id="edge29" class="edge"><title>maps-&gt;graphs</title><path fill="none" stroke="#000" d="M223.7477,-647.8314C223.6407,-640.131 223.5135,-630.9743 223.3947,-622.4166"/><polygon fill="#000" stroke="#000" points="226.894 -622.364 223.256 -612.413 219.895 -622.461 226.894 -622.364"/></g><g id="node23" class="node"><title>obs</title><g id="a_node23"><a xlink:href="group__mrpt__obs__grp.html" xlink:title="mrpt-obs"><polygon fill="#d0d0d0" stroke="#000" points="387 -612 321 -612 321 -576 387 -576 387 -612"/><text x="354" y="-590.3" fill="#000" font-family="Times,serif" font-size="14" text-anchor="middle">mrpt-obs</text></a></g></g><g id="edge30" class="edge"><title>maps-&gt;obs</title><path fill="none" stroke="#000" d="M256.8045,-647.8314C273.5862,-638.5368 294.1985,-627.1208 312.1163,-617.1971"/><polygon fill="#000" stroke="#000" points="314.154 -620.07 321.206 -612.163 310.762 -613.946 314.154 -620.07"/></g><g id="edge52" class="edge"><title>vision-&gt;obs</title><path fill="none" stroke="#000" d="M359.2336,-647.8314C358.485,-640.131 357.5947,-630.9743 356.7627,-622.4166"/><polygon fill="#000" stroke="#000" points="360.241 -622.028 355.79 -612.413 353.274 -622.705 360.241 -622.028"/></g><g id="edge25" class="edge"><title>img-&gt;math</title><path fill="none" stroke="#000" d="M221.1795,-359.7734C230.2885,-349.6486 241.3513,-336.5859 250,-324 263.7506,-303.9897 276.7658,-279.737 285.9219,-261.4519"/><polygon fill="#000" stroke="#000" points="289.185 -262.748 290.466 -252.231 282.906 -259.653 289.185 -262.748"/></g><g id="edge26" class="edge"><title>img-&gt;config</title><path fill="none" stroke="#000" d="M202.9906,-359.8314C202.5628,-352.131 202.0541,-342.9743 201.5787,-334.4166"/><polygon fill="#000" stroke="#000" points="205.072 -334.204 201.023 -324.413 198.083 -334.592 205.072 -334.204"/></g><g id="edge24" class="edge"><title>img-&gt;io</title><path fill="none" stroke="#000" d="M179.0181,-359.8314C166.7072,-350.8779 151.6893,-339.9558 138.4063,-330.2955"/><polygon fill="#000" stroke="#000" points="140.12 -327.214 129.974 -324.163 136.003 -332.875 140.12 -327.214"/></g><g id="node22" class="node"><title>kinematics</title><g id="a_node22"><a xlink:href="group__mrpt__kinematics__grp.html" xlink:title="mrpt-kinematics"><polygon fill="#d0d0d0" stroke="#000" points="163.5 -612 56.5 -612 56.5 -576 163.5 -576 163.5 -612"/><text x="110" y="-590.3" fill="#000" font-family="Times,serif" font-size="14" text-anchor="middle">mrpt-kinematics</text></a></g></g><g id="edge28" class="edge"><title>kinematics-&gt;opengl</title><path fill="none" stroke="#000" d="M140.7858,-575.8314C156.3903,-566.6221 175.524,-555.3301 192.2303,-545.4706"/><polygon fill="#000" stroke="#000" points="194.391 -548.26 201.224 -540.163 190.833 -542.231 194.391 -548.26"/></g><g id="edge37" class="edge"><title>obs-&gt;opengl</title><path fill="none" stroke="#000" d="M323.2142,-575.8314C307.6097,-566.6221 288.476,-555.3301 271.7697,-545.4706"/><polygon fill="#000" stroke="#000" points="273.167 -542.231 262.776 -540.163 269.609 -548.26 273.167 -542.231"/></g><g id="node28" class="node"><title>tfest</title><g id="a_node28"><a xlink:href="group__mrpt__tfest__grp.html" xlink:title="mrpt-tfest"><polygon fill="#d0d0d0" stroke="#000" points="380.5 -540 309.5 -540 309.5 -504 380.5 -504 380.5 -540"/><text x="345" y="-518.3" fill="#000" font-family="Times,serif" font-size="14" text-anchor="middle">mrpt-tfest</text></a></g></g><g id="edge38" class="edge"><title>obs-&gt;tfest</title><path fill="none" stroke="#000" d="M351.7289,-575.8314C350.7664,-568.131 349.6218,-558.9743 348.5521,-550.4166"/><polygon fill="#000" stroke="#000" points="352.015 -549.902 347.302 -540.413 345.069 -550.77 352.015 -549.902"/></g><g id="node30" class="node"><title>rtti</title><g id="a_node30"><a xlink:href="group__mrpt__rtti__grp.html" xlink:title="mrpt-rtti"><polygon fill="#d0d0d0" stroke="#000" points="280.5 -108 217.5 -108 217.5 -72 280.5 -72 280.5 -108"/><text x="249" y="-86.3" fill="#000" font-family="Times,serif" font-size="14" text-anchor="middle">mrpt-rtti</text></a></g></g><g id="edge45" class="edge"><title>serialization-&gt;rtti</title><path fill="none" stroke="#000" d="M257.9719,-143.8314C256.6885,-136.131 255.1624,-126.9743 253.7361,-118.4166"/><polygon fill="#000" stroke="#000" points="257.165 -117.702 252.069 -108.413 250.261 -118.853 257.165 -117.702"/></g><g id="node27" class="node"><title>nav</title><g id="a_node27"><a xlink:href="group__mrpt__nav__grp.html" xlink:title="mrpt-nav"><polygon fill="#d0d0d0" stroke="#000" points="123.5 -756 56.5 -756 56.5 -720 123.5 -720 123.5 -756"/><text x="90" y="-734.3" fill="#000" font-family="Times,serif" font-size="14" text-anchor="middle">mrpt-nav</text></a></g></g><g id="edge36" class="edge"><title>nav-&gt;maps</title><path fill="none" stroke="#000" d="M123.8139,-719.8314C141.2707,-710.4516 162.7487,-698.9112 181.3352,-688.9244"/><polygon fill="#000" stroke="#000" points="183.045 -691.979 190.197 -684.163 179.731 -685.813 183.045 -691.979"/></g><g id="edge35" class="edge"><title>nav-&gt;kinematics</title><path fill="none" stroke="#000" d="M92.533,-719.7623C95.9443,-695.201 102.049,-651.2474 106.0619,-622.3541"/><polygon fill="#000" stroke="#000" points="109.579 -622.476 107.488 -612.09 102.645 -621.513 109.579 -622.476"/></g><g id="edge50" class="edge"><title>tfest-&gt;poses</title><path fill="none" stroke="#000" d="M334.4016,-503.8314C329.7123,-495.7925 324.0972,-486.1666 318.9202,-477.2918"/><polygon fill="#000" stroke="#000" points="321.803 -475.288 313.741 -468.413 315.757 -478.815 321.803 -475.288"/></g><g id="edge41" class="edge"><title>poses-&gt;bayes</title><path fill="none" stroke="#000" d="M303,-431.8314C303,-424.131 303,-414.9743 303,-406.4166"/><polygon fill="#000" stroke="#000" points="306.5 -406.413 303 -396.413 299.5 -406.413 306.5 -406.413"/></g><g id="edge42" class="edge"><title>rtti-&gt;core</title><path fill="none" stroke="#000" d="M217.2318,-73.6621C198.2573,-63.9038 173.8765,-51.3651 153.0604,-40.6596"/><polygon fill="#000" stroke="#000" points="154.576 -37.503 144.082 -36.042 151.375 -43.728 154.576 -37.503"/></g><g id="edge43" class="edge"><title>rtti-&gt;typemeta</title><path fill="none" stroke="#000" d="M242.4391,-71.8314C239.5973,-63.9617 236.2063,-54.5712 233.0581,-45.8533"/><polygon fill="#000" stroke="#000" points="236.338 -44.63 229.649 -36.413 229.754 -47.008 236.338 -44.63"/></g><g id="node32" class="node"><title>ros1bridge</title><g id="a_node32"><a xlink:href="group__mrpt__ros1bridge__grp.html" xlink:title="mrpt-ros1bridge"><polygon fill="#d0d0d0" stroke="#000" points="285.5 -756 180.5 -756 180.5 -720 285.5 -720 285.5 -756"/><text x="233" y="-734.3" fill="#000" font-family="Times,serif" font-size="14" text-anchor="middle">mrpt-ros1bridge</text></a></g></g><g id="edge44" class="edge"><title>ros1bridge-&gt;maps</title><path fill="none" stroke="#000" d="M230.7289,-719.8314C229.7664,-712.131 228.6218,-702.9743 227.5521,-694.4166"/><polygon fill="#000" stroke="#000" points="231.015 -693.902 226.302 -684.413 224.069 -694.77 231.015 -693.902"/></g><g id="node33" class="node"><title>topography</title><g id="a_node33"><a xlink:href="group__mrpt__topography__grp.html" xlink:title="mrpt-topography"><polygon fill="#d0d0d0" stroke="#000" points="528.5 -684 419.5 -684 419.5 -648 528.5 -648 528.5 -684"/><text x="474" y="-662.3" fill="#000" font-family="Times,serif" font-size="14" text-anchor="middle">mrpt-topography</text></a></g></g><g id="edge51" class="edge"><title>topography-&gt;obs</title><path fill="none" stroke="#000" d="M443.7189,-647.8314C428.3702,-638.6221 409.5502,-627.3301 393.1177,-617.4706"/><polygon fill="#000" stroke="#000" points="394.647 -614.307 384.271 -612.163 391.046 -620.309 394.647 -614.307"/></g></g></svg>